<svg width="14" height="11" viewBox="0 0 14 11" fill="none" xmlns="http://www.w3.org/2000/svg">
<path fill-rule="evenodd" clip-rule="evenodd" d="M10.8592 2.01628H12.4425C13.1682 2.01628 13.7619 2.62174 13.7619 3.36176V9.41645C13.7619 10.1565 13.1682 10.7619 12.4425 10.7619H1.88695C1.16125 10.7619 0.567505 10.1565 0.567505 9.41645V3.36176C0.567505 2.62174 1.16125 2.01628 1.88695 2.01628H3.47028C3.68799 2.01628 3.92232 1.84405 3.99133 1.63349L4.40062 0.380972C4.46937 0.170269 4.70396 -0.00195312 4.92167 -0.00195312H9.40778C9.62549 -0.00195312 9.85982 0.170269 9.92883 0.380838L10.3381 1.63335C10.4069 1.84405 10.6415 2.01628 10.8592 2.01628ZM5.18556 6.05273C5.18556 4.9384 6.07157 4.03451 7.16473 4.03451C8.25762 4.03451 9.14389 4.9384 9.14389 6.05273C9.14389 7.16747 8.25762 8.07096 7.16473 8.07096C6.07157 8.07096 5.18556 7.16747 5.18556 6.05273ZM7.16473 9.41645C5.34297 9.41645 3.86612 7.91045 3.86612 6.05273C3.86612 4.19516 5.34297 2.68902 7.16473 2.68902C8.98622 2.68902 10.4633 4.19516 10.4633 6.05273C10.4633 7.91045 8.98622 9.41645 7.16473 9.41645ZM11.5189 3.83174C11.5189 4.09196 11.7258 4.30266 11.9807 4.30266C12.2357 4.30266 12.4425 4.09196 12.4425 3.83174C12.4425 3.57179 12.2359 3.36082 11.9807 3.36082C11.7258 3.36082 11.5189 3.57179 11.5189 3.83174Z" fill="white"/>
</svg>
