<svg id="Layer_1" data-name="Layer 1" xmlns="http://www.w3.org/2000/svg" viewBox="0 0 56 56"><path d="M15.1,27.4a22.1,22.1,0,0,1,4.7-6.6,28.1,28.1,0,0,1,16-8.4,27.8,27.8,0,0,1,23.3,6.4c.5.3.6.6.1,1l-7.1,7c-.2.2-.4.5-.8.1-6-5.4-15.8-5.3-22.1.5a17,17,0,0,0-4.7,7.1l-.5-.3Z" transform="translate(-12 -12)" style="fill:#d7282a;fill-rule:evenodd"/><path d="M24.4,45.4a17.7,17.7,0,0,0,3.5,5.9,17.1,17.1,0,0,0,15,5.6,18.6,18.6,0,0,0,7.6-2.6l.7.6,8.3,6.3a24.7,24.7,0,0,1-10.7,5.7c-9.6,2.4-18.4.9-26.2-5.1a25.1,25.1,0,0,1-7.5-9.3Z" transform="translate(-12 -12)" style="fill:#45ac43;fill-rule:evenodd"/><path d="M59.5,61.2l-8.3-6.3-.7-.6A14.1,14.1,0,0,0,55,49.1a11.4,11.4,0,0,0,.9-2.6c.2-.6.2-.8-.6-.8H41.5c-1,0-1,0-1-1V35.5c0-.6.1-.8.8-.8H66.8c.4,0,.7,0,.8.6,1,7.3.2,14.2-3.7,20.6A20.4,20.4,0,0,1,59.5,61.2Z" transform="translate(-12 -12)" style="fill:#5d7fbe;fill-rule:evenodd"/><path d="M24.4,45.4l-9.3,7.1a22.7,22.7,0,0,1-2.8-8.8,26.8,26.8,0,0,1,2.3-15.5,5.6,5.6,0,0,0,.5-.8L24,34.2l.5.3A17,17,0,0,0,24.4,45.4Z" transform="translate(-12 -12)" style="fill:#f4c300;fill-rule:evenodd"/></svg>