<svg width="24" height="25" viewBox="0 0 24 25" fill="none" xmlns="http://www.w3.org/2000/svg">
<path fill-rule="evenodd" clip-rule="evenodd" d="M18.6346 9.9437C18.6346 12.2909 17.7302 14.4223 16.2807 16.0141L22.7706 22.6106C23.0765 22.9343 23.0765 23.4469 22.7706 23.7572C22.6243 23.9191 22.4115 24 22.212 24C22.0125 24 21.813 23.9191 21.6535 23.7572L15.097 17.1068C13.6208 18.2264 11.7989 18.8874 9.8173 18.8874C4.94983 18.8874 1 14.8675 1 9.9437C1 5.01993 4.94983 1 9.8173 1C14.6848 1 18.6346 5.01993 18.6346 9.9437ZM9.8173 2.61877C5.82757 2.61877 2.59589 5.91025 2.59589 9.9437C2.59589 13.9772 5.82757 17.2686 9.8173 17.2686C13.807 17.2686 17.0387 13.9906 17.0387 9.9437C17.0387 5.89678 13.7937 2.61877 9.8173 2.61877Z" fill="white"/>
<path d="M16.2807 16.0141L16.0958 15.8458L15.9365 16.0207L16.1024 16.1894L16.2807 16.0141ZM22.7706 22.6106L22.9523 22.4388L22.9488 22.4352L22.7706 22.6106ZM22.7706 23.7572L22.5924 23.5815L22.5851 23.5896L22.7706 23.7572ZM21.6535 23.7572L21.4754 23.9327L21.6535 23.7572ZM15.097 17.1068L15.2751 16.9312L15.1209 16.7749L14.9459 16.9076L15.097 17.1068ZM16.4655 16.1824C17.9549 14.547 18.8846 12.3563 18.8846 9.9437H18.3846C18.3846 12.2255 17.5056 14.2977 16.0958 15.8458L16.4655 16.1824ZM22.9488 22.4352L16.4589 15.8388L16.1024 16.1894L22.5924 22.7859L22.9488 22.4352ZM22.9486 23.9327C23.3524 23.5231 23.3472 22.8569 22.9523 22.4389L22.5889 22.7823C22.8057 23.0118 22.8005 23.3707 22.5925 23.5817L22.9486 23.9327ZM22.212 24.25C22.4745 24.25 22.7574 24.1446 22.9561 23.9248L22.5851 23.5896C22.4911 23.6936 22.3485 23.75 22.212 23.75V24.25ZM21.4754 23.9327C21.6801 24.1403 21.943 24.25 22.212 24.25V23.75C22.0821 23.75 21.946 23.6978 21.8315 23.5817L21.4754 23.9327ZM14.919 17.2823L21.4754 23.9327L21.8315 23.5817L15.2751 16.9312L14.919 17.2823ZM9.8173 19.1374C11.8558 19.1374 13.7303 18.4571 15.2481 17.3059L14.9459 16.9076C13.5113 17.9957 11.742 18.6374 9.8173 18.6374V19.1374ZM0.75 9.9437C0.75 15.0019 4.80817 19.1374 9.8173 19.1374V18.6374C5.09149 18.6374 1.25 14.733 1.25 9.9437H0.75ZM9.8173 0.75C4.80817 0.75 0.75 4.88547 0.75 9.9437H1.25C1.25 5.15439 5.09149 1.25 9.8173 1.25V0.75ZM18.8846 9.9437C18.8846 4.88547 14.8264 0.75 9.8173 0.75V1.25C14.5431 1.25 18.3846 5.15439 18.3846 9.9437H18.8846ZM2.84589 9.9437C2.84589 6.04465 5.96928 2.86877 9.8173 2.86877V2.36877C5.68586 2.36877 2.34589 5.77585 2.34589 9.9437H2.84589ZM9.8173 17.0186C5.96928 17.0186 2.84589 13.8427 2.84589 9.9437H2.34589C2.34589 14.1116 5.68586 17.5186 9.8173 17.5186V17.0186ZM16.7887 9.9437C16.7887 13.8559 13.6656 17.0186 9.8173 17.0186V17.5186C13.9484 17.5186 17.2887 14.1253 17.2887 9.9437H16.7887ZM9.8173 2.86877C13.6526 2.86877 16.7887 6.03178 16.7887 9.9437H17.2887C17.2887 5.76177 13.9349 2.36877 9.8173 2.36877V2.86877Z" fill="white"/>
</svg>
